<svg id="Layer_1" data-name="Layer 1" xmlns="http://www.w3.org/2000/svg" viewBox="0 0 1000 1000"><defs><style>.cls-1{fill:#fff;}</style></defs><path class="cls-1" d="M892.67,352.83c0,36.14.22,72.28,0,108.42-1.16,168-67.37,305.25-196,412.48-52.59,43.85-111,77.76-177.29,97a68.29,68.29,0,0,1-39.47-.36c-77.18-22.81-143.24-64.8-201.81-118.79-86.78-80-142.25-178-162.08-294.74-5.5-32.38-7.85-65.59-8.33-98.48-1.19-80.05-.17-160.14-.69-240.21-.09-15,5.69-23.42,19.16-29.35Q305.53,109.88,484.5,30.11c10.85-4.83,20.34-4.8,31.17,0q179,79.7,358.35,158.66c13.59,6,19.17,14.57,19,29.45-.63,44.85-.23,89.72-.23,134.59Zm-35.1,11.25h1.07c0-44.88-.19-89.75.19-134.63.07-7.47-2.4-10.75-9.12-13.71Q678.46,140.3,507.51,64.2c-5.31-2.36-9.49-2.39-14.81,0q-171.42,76.2-343.07,151.89c-6.42,2.83-8.47,6.3-8.44,13.23.31,74.48.22,149,.31,223.44.05,37.78,2.33,75.47,10.88,112.31C194.29,745.51,305.12,865.62,475.7,933.3c16.95,6.73,32.68,6,49.63,0C595.75,908,656.73,868,709.79,815.76c91.94-90.46,141.87-200.22,147.5-329.25C859.07,445.77,857.57,404.89,857.57,364.08Z"/><path class="cls-1" d="M834.91,373.79c0,44.53,2.39,89.21-.47,133.56-7,108.95-50.42,202.56-126.17,280.94C657.58,840.75,598.34,880.5,529.5,905.67c-19.71,7.21-38.49,7.89-58,0-162-65.13-266-179.88-300.12-353.23-5.67-28.81-7.07-58.76-7.52-88.23-1.07-69.77-.26-139.57-.58-209.36,0-8.32,2.45-12.82,10.29-16.27Q332.37,168.68,490.9,98.06c6.6-2.94,12-2.83,18.49.07Q668,168.68,826.76,238.67c7.43,3.27,10,7.43,10,15.48-.39,39.88-.18,79.76-.18,119.64ZM585.44,873.15c4.35-2.36,7.34-3.93,10.28-5.59A467.27,467.27,0,0,0,691.14,796c88.4-85.88,135.57-190.37,138.14-313.76,1.57-75.7.37-151.45.73-227.18,0-6.81-3.28-8.91-8.52-11.23Q664.82,174.58,508.33,105c-5.95-2.65-10.7-2.57-16.62.06Q335.23,174.68,178.52,243.76C172,246.62,170,250,170,256.94c.27,58,.19,115.94.14,173.9,0,44,.07,87.83,9.27,131.16,29,136.66,107.89,236.35,226.74,306.48a46.07,46.07,0,0,0,5.7,2.32c8.84-137.84,17.61-274.8,26.41-412h24.39v12.76q0,207.09-.19,414.18c0,8.81,2.85,12.48,12.53,12.56V462h84.12C567.89,599.13,576.62,735.5,585.44,873.15Z"/><path class="cls-1" d="M498.18,207.1v31.42c0,26.49.19,53-.2,79.46-.06,4.07-2.13,8.53-4.43,12-3.48,5.32-4.06,10.82,1.14,13.84,3.28,1.91,9.76,1.54,13.07-.55,4.71-3,3.73-8.26.65-13.22-2.39-3.83-4.76-8.51-4.8-12.83-.37-36.73-.21-73.47-.21-112.58,2.6,3.65,4.1,5.35,5.15,7.3,19.27,35.57,38.63,71.1,57.47,106.91,1.92,3.65,1.79,9.35.6,13.52-5.55,19.4-12.17,38.5-17.59,57.92-1.52,5.46-3,7.82-9,7.75-26.17-.28-52.34-.18-78.51-.06-4.6,0-6.92-1-8.41-6.18-6-20.87-12.92-41.48-19.25-62.26-.72-2.36-.77-5.65.34-7.73q30.74-57.64,61.86-115.09Z"/><path class="cls-1" d="M677.3,316.77c-2.35-2.47-5.1-4.68-7-7.48-3.68-5.47-2.8-10.92,2.39-14.84s10.74-3.41,15,1.48,4.62,11.44-.68,14.85c-7.85,5.05-6.29,10.86-4.26,17.58C702.94,395,722.9,461.68,743.43,528.2c1.45,4.69,7,8.11,10.74,12.21-.4.38-3.27,2.1-4.71,4.64-7.78,13.79-20.39,17.07-34.88,17-23-.12-46.07-.17-69.1,0-14.85.13-27.77-3-35.69-17.26-1.41-2.52-4.37-4.18-7.42-7,10.91,1.13,13-6,15.35-13.86,19-63.71,38.44-127.33,57.5-191,1.54-5.16,1.38-10.83,2-16.27Zm64.31,217.07L683,340.05l-1.17.36V533.84ZM677.5,341.92l-1.6-.33c-19.41,64.25-38.83,128.51-58,192H677.5Z"/><path class="cls-1" d="M324.51,316.77c.19,3.65-.35,7.52.67,10.92C345.33,395,365.54,462.21,386.29,529.3c1.34,4.33,7.2,7.27,10.35,10.29-1,1.22-3.83,3.77-5.7,6.87-6.64,11-16.83,15.33-29.06,15.41q-39.67.23-79.36,0c-12.22-.08-22.39-4.33-29.08-15.39-1.84-3.06-4.94-5.35-8-8.55,9.84.72,12.24-5.52,14.56-13.31C279.27,460,298.93,395.5,318.44,331c2.32-7.68,5-15-4.18-21.19-2.19-1.46-1.84-10.15.3-13.76A8.84,8.84,0,0,1,329,294.75c2.74,3.16,3.31,9.35,2.67,13.88-.42,3-4.66,5.51-7.2,8.23Zm-4.23,23.74h-1.56c-19.5,64.61-39,129.21-58.28,193h59.84Zm5.76,1.2-1.39.14v192h59.47Q355.1,437.8,326,341.71Z"/><path class="cls-1" d="M483.49,406.7h66.34V449H483.49Z"/><path class="cls-1" d="M469.91,449.14H448.2V407h21.71Z"/><path class="cls-1" d="M677.23,316.65c-24.69,10-48.49,4.62-72.6-3.14-11-3.56-23-4.95-34.66-5.58-9-.49-8.08-7.95-11.83-12.06l.66-3c10.46,1.59,21.21,2.17,31.3,5.05,11,3.14,21.38,8.32,31.94,12.8,15.81,6.7,31.86,10.34,49,5.34,1.85-.54,4.14.37,6.26.64C677.3,316.77,677.23,316.65,677.23,316.65Z"/><path class="cls-1" d="M324.5,316.86c2.08-.31,4.38-1.37,6.2-.83,18.17,5.43,34.79.3,51.69-6.12,16.14-6.13,32.85-10.82,49.43-15.73,3.37-1,7.29-.14,11.15-.14-3.25,12.87-3.93,12.71-15.64,13.68a126.25,126.25,0,0,0-29.17,5.45c-24.32,8.08-48.49,13.67-73.61,3.56A.26.26,0,0,0,324.5,316.86Z"/></svg>